<svg xmlns="http://www.w3.org/2000/svg" viewBox="0 0 64 64">
  <defs>
    <linearGradient id="bg" x1="0%" y1="0%" x2="100%" y2="100%">
      <stop offset="0%" stop-color="#4a6fa5" />
      <stop offset="100%" stop-color="#2c3e50" />
    </linearGradient>
  </defs>
  <rect width="64" height="64" rx="14" fill="url(#bg)" />
  <path d="M20 44c-4.97 0-9-4.03-9-9v-6c0-4.97 4.03-9 9-9h6c1.66 0 3 1.34 3 3s-1.34 3-3 3h-6c-1.66 0-3 1.34-3 3v6c0 1.66 1.34 3 3 3h6c1.66 0 3 1.34 3 3s-1.34 3-3 3h-6z" fill="#ecf0f1"/>
  <path d="M46 20c4.97 0 9 4.03 9 9v14c0 1.66-1.34 3-3 3s-3-1.34-3-3v-3.5c-1.61 2.14-4.15 3.5-7 3.5-5.24 0-9.5-4.26-9.5-9.5S36.76 24 42 24c2.85 0 5.39 1.36 7 3.5V29c0-2.76-2.24-5-5-5-1.66 0-3-1.34-3-3s1.34-3 3-3zM42 30c-1.93 0-3.5 1.57-3.5 3.5S40.07 37 42 37s3.5-1.57 3.5-3.5S43.93 30 42 30z" fill="#f9fafc"/>
</svg>
